<svg xmlns="http://www.w3.org/2000/svg" viewBox="0 0 163.6 184.98"><defs><style>.cls-1{fill:#59b7b1;}.cls-2{fill:none;stroke:#54a39b;stroke-linecap:round;stroke-miterlimit:10;stroke-width:7px;}</style></defs><title>delete </title><g id="Layer_2" data-name="Layer 2"><g id="Layer_1-2" data-name="Layer 1"><path class="cls-1" d="M96.79,36.51H18.67c-4.51,0-8.05,3.35-7.62,7.23L26,179c.37,3.39,3.67,6,7.62,6H130c3.94,0,7.24-2.59,7.62-6L152.54,43.74c.43-3.88-3.1-7.23-7.61-7.23Z"/><line class="cls-2" x1="34.21" y1="50.94" x2="45.61" y2="163.78"/><line class="cls-2" x1="65.94" y1="51.12" x2="70.17" y2="163.59"/><line class="cls-2" x1="97.66" y1="51.3" x2="94.72" y2="163.41"/><line class="cls-2" x1="129.38" y1="51.48" x2="119.28" y2="163.23"/><rect class="cls-1" y="28.45" width="163.6" height="11.3"/><rect class="cls-1" x="11.02" y="20.91" width="141.56" height="10.66"/><path class="cls-1" d="M52.48,3.38v24.8a3.38,3.38,0,0,0,3.38,3.38h0a3.38,3.38,0,0,0,3.38-3.38V11a3.38,3.38,0,0,1,3.38-3.38H101A3.38,3.38,0,0,1,104.35,11V28.18a3.38,3.38,0,0,0,3.39,3.38h0a3.38,3.38,0,0,0,3.38-3.38V3.38A3.38,3.38,0,0,0,107.74,0H55.86A3.38,3.38,0,0,0,52.48,3.38Z"/></g></g></svg>