<?xml version="1.0" encoding="utf-8"?>
<!-- Generator: Adobe Illustrator 23.0.3, SVG Export Plug-In . SVG Version: 6.00 Build 0)  -->
<svg version="1.1" id="Layer_1" xmlns="http://www.w3.org/2000/svg" xmlns:xlink="http://www.w3.org/1999/xlink" x="0px" y="0px"
	 viewBox="0 0 168.1 186.8" style="enable-background:new 0 0 168.1 186.8;" xml:space="preserve">
<style type="text/css">
	.st0{fill:none;stroke:#54A39B;stroke-width:11.03;stroke-miterlimit:10;}
	.st1{fill:#59B7B1;}
	.st2{fill:#54A39B;}
</style>
<title>edit icon</title>
<g>
	<g id="Layer_1-2">
		<rect x="5.5" y="43.3" class="st0" width="127.3" height="138"/>
		<path class="st1" d="M72.8,134l-23.1-19.1c-0.8-0.5-1-1.6-0.4-2.4l79.6-96.2c0.7-0.7,1.8-0.7,2.4,0l23.1,19.1
			c0.8,0.5,1,1.6,0.4,2.4L75.2,134C74.6,134.7,73.5,134.7,72.8,134z"/>
		<path class="st2" d="M166.9,23.5c3.1-4.3,0.1-12.2-6.9-18s-15.4-7.2-19-3.4l0,0l-7.5,9.1l26,21.5L166.9,23.5L166.9,23.5z"/>
		<path class="st1" d="M69.9,137.8l-23.5-19.4c-0.6-0.6-1.6-0.6-2.2,0l-4.3,5.2c-0.1,0.1-0.2,0.3-0.2,0.5l-7.6,33.1
			c-0.1,1,0.5,1.9,1.5,2c0.3,0,0.6,0,0.8-0.1l31.4-14.1c0.2-0.1,0.3-0.2,0.4-0.3l4-4.9C70.7,139.2,70.6,138.3,69.9,137.8z"/>
		<path class="st2" d="M41.7,148.3c-2-1.6-4.4-2.6-6.9-2.7l-2.7,11.6c-0.1,1,0.5,1.9,1.5,2c0.3,0,0.6,0,0.8-0.1l10.5-4.7
			C44.5,152.1,43.4,150,41.7,148.3z"/>
	</g>
</g>
</svg>
